<svg width="27" height="20" viewBox="0 0 27 20" fill="none" xmlns="http://www.w3.org/2000/svg">
<path d="M22.9117 0H3.99987C3.50202 0 3.10055 0.406691 3.10055 0.909612C3.10055 1.41253 3.50202 1.81693 3.99987 1.81693H22.9117C24.1728 1.81693 25.1991 2.856 25.1991 4.12991V4.21812H3.99987C3.50202 4.21812 3.10055 4.62252 3.10055 5.12544C3.10055 5.62722 3.50202 6.03391 3.99987 6.03391H25.1991V15.8712C25.1991 17.144 24.1728 18.1831 22.9117 18.1831H4.0872C2.82611 18.1831 1.79977 17.144 1.79977 15.8712V4.03941C1.79977 3.53649 1.39718 3.1298 0.900454 3.1298C0.402596 3.1298 0 3.53649 0 4.03941V15.8712C0 18.1487 1.8338 20 4.0872 20H22.9117C25.1651 20 27 18.1487 27 15.8712V4.12991C27 1.85245 25.1651 0 22.9117 0ZM22.3866 12.9774C22.8833 12.9774 23.287 12.5707 23.287 12.069C23.287 11.5649 22.8833 11.1605 22.3866 11.1605H13.4558C12.9579 11.1605 12.5553 11.5649 12.5553 12.069C12.5553 12.5707 12.9579 12.9774 13.4558 12.9774H22.3866ZM5.34035 10.6599H8.13017V13.4769H5.34035V10.6599ZM9.02949 15.2961C9.52734 15.2961 9.92994 14.8895 9.92994 14.3854V9.75026C9.92994 9.24848 9.52734 8.84065 9.02949 8.84065H4.44103C3.94317 8.84065 3.54171 9.24848 3.54171 9.75026V14.3854C3.54171 14.8895 3.94317 15.2961 4.44103 15.2961H9.02949Z" fill="#C3BEBE"/>
</svg>
