<svg width="33" height="22" viewBox="0 0 33 22" fill="none" xmlns="http://www.w3.org/2000/svg">
<path d="M16.8203 12.5917H14.5567L13.6577 13.5642L12.7915 12.5917H9.93945V15.55H12.7425L13.6495 14.5693L14.524 15.55H15.8969V14.5611H16.7876C17.4005 14.5611 18.0134 14.3895 18.0134 13.5642C18.0134 12.747 17.3842 12.5917 16.8203 12.5917ZM12.3829 14.9371H10.6422V14.3487H12.2031V13.7439H10.6422V13.2046H12.4237L13.1919 14.0626L12.3829 14.9371ZM15.1941 15.2803L14.1072 14.079L15.1941 12.9104V15.2803ZM16.8122 13.9564H15.8969V13.2046H16.8203C17.0818 13.2046 17.2534 13.3027 17.2534 13.5642C17.2534 13.8257 17.09 13.9564 16.8122 13.9564ZM20.702 14.1771C20.8818 14.1035 21.2006 13.8583 21.2006 13.3843C21.2006 13.0493 21.0616 12.8614 20.841 12.7306C20.604 12.608 20.3425 12.5917 19.9829 12.5917H18.3485V15.55H19.0595V14.4712H19.8195C20.0728 14.4712 20.2363 14.4958 20.3343 14.602C20.4732 14.7409 20.4487 15.0024 20.4487 15.1822V15.55H21.1597V14.9697C21.1597 14.7001 21.1433 14.5693 21.0453 14.4222C20.9881 14.3405 20.8573 14.2343 20.702 14.1771ZM20.2689 13.8093C20.179 13.8665 20.0564 13.8665 19.9175 13.8665H19.0595V13.2046H19.9339C20.0564 13.2046 20.1872 13.2046 20.2689 13.2536C20.367 13.3026 20.416 13.3925 20.416 13.5233C20.416 13.6459 20.367 13.7521 20.2689 13.8093ZM23.9545 13.2046V12.5917H21.5928V15.55H23.9545V14.9371H22.2956V14.3487H23.9137V13.7439H22.2956V13.2046H23.9545V13.2046ZM26.6595 13.9891C26.5042 13.8257 26.2345 13.7603 25.8504 13.7521L25.4745 13.7439C25.3519 13.7439 25.2702 13.7358 25.1966 13.7112C25.1068 13.6704 25.0414 13.5968 25.0414 13.4906C25.0414 13.3925 25.0659 13.319 25.1476 13.27C25.2212 13.2209 25.3029 13.2209 25.4337 13.2209H26.733V12.5917H25.3111C24.5674 12.5917 24.2977 13.0411 24.2977 13.4743C24.2977 14.4058 25.1313 14.365 25.7932 14.3895C25.9158 14.3895 25.9894 14.4059 26.0384 14.4549C26.0874 14.4958 26.1283 14.5611 26.1283 14.6511C26.1283 14.7328 26.0956 14.7981 26.0466 14.8472C25.9812 14.8962 25.8913 14.9207 25.7524 14.9207H24.3794V15.55H25.7605C26.4715 15.55 26.872 15.2558 26.872 14.6183C26.8719 14.316 26.7984 14.1362 26.6595 13.9891ZM29.487 14.0626C29.4706 14.0382 29.4461 14.0136 29.4216 13.9891C29.2663 13.8257 29.0048 13.7603 28.6207 13.7521L28.2367 13.7439C28.1141 13.7439 28.0324 13.7358 27.9588 13.7112C27.8689 13.6786 27.8035 13.5968 27.8035 13.4906C27.8035 13.3925 27.8362 13.319 27.9098 13.27C27.9833 13.2209 28.065 13.2209 28.1958 13.2209H29.487V12.5917H28.0732C27.3296 12.5917 27.0599 13.0411 27.0599 13.4743C27.0599 14.4058 27.8935 14.365 28.5554 14.3895C28.6779 14.3895 28.7515 14.4059 28.8005 14.4549C28.8578 14.4958 28.8904 14.5611 28.8904 14.6511C28.8904 14.7328 28.8578 14.7981 28.8087 14.8472C28.7515 14.8962 28.6535 14.9207 28.5227 14.9207H27.158V15.55H28.5227C28.9803 15.55 29.3154 15.4274 29.487 15.174C29.8384 14.5285 29.487 14.0626 29.487 14.0626Z" fill="#6E6C6C"/>
<path d="M10.7567 7.49231L9.90679 9.5026L8.97517 7.49231H7.82293V10.2953L6.62162 7.49231H5.56744L4.30078 10.4506H5.0689L5.3386 9.78865H6.81774L7.08743 10.4506H8.52572V8.1297L9.55541 10.4506H10.1764L11.2061 8.1297V10.4506H11.9334V7.49231H10.7567ZM5.59192 9.17575L6.0741 7.9908L6.5644 9.17575H5.59192Z" fill="#6E6C6C"/>
<path d="M14.8263 10.4506H12.4646V7.49231H14.8263V8.10521H13.1756V8.63637H14.7936V9.24927H13.1756V9.83769H14.8263V10.4506Z" fill="#6E6C6C"/>
<path d="M17.6702 9.07769C17.85 9.00411 18.1687 8.75897 18.1687 8.28497C18.1687 7.95812 18.0298 7.76195 17.8091 7.63122C17.5803 7.50049 17.3106 7.49231 16.9511 7.49231H15.3167V10.4506H16.0276V9.37187H16.7876C17.0409 9.37187 17.2044 9.39636 17.3024 9.5026C17.4332 9.64156 17.4169 9.90307 17.4169 10.0747V10.4506H18.136V9.87035C18.136 9.60884 18.1196 9.46993 18.0134 9.32284C17.9562 9.24114 17.8255 9.1349 17.6702 9.07769ZM17.2371 8.70176C17.139 8.75897 17.0246 8.76715 16.8857 8.76715H16.0276V8.10521H16.902C17.0246 8.10521 17.1554 8.11339 17.2371 8.16242C17.3269 8.20328 17.3841 8.29315 17.3841 8.42394C17.3841 8.55467 17.3351 8.65272 17.2371 8.70176Z" fill="#6E6C6C"/>
<path d="M19.2965 7.49231H18.5774V10.4506H19.2965V7.49231Z" fill="#6E6C6C"/>
<path d="M26.9538 7.49233V9.55165L25.7116 7.49233H24.6329V10.2953L23.4316 7.49233H22.3774L21.3722 9.82134H21.0617C20.8738 9.82134 20.6695 9.78049 20.5632 9.66607C20.4325 9.51898 20.3671 9.29019 20.3671 8.97146C20.3671 8.66093 20.4488 8.42395 20.5714 8.30135C20.7103 8.16244 20.8574 8.12154 21.1189 8.12154H21.789V7.49233H21.1026C20.6122 7.49233 20.2609 7.59856 20.0321 7.83553C19.7215 8.15425 19.6479 8.55467 19.6479 8.99595C19.6479 9.53533 19.7787 9.87036 20.0239 10.1237C20.269 10.377 20.7103 10.4506 21.0536 10.4506H21.8789L22.1486 9.78865H23.6196L23.8974 10.4506H25.3357V8.22777L26.6759 10.4506H27.6811V7.49231H26.9538V7.49233ZM22.4019 9.17577L22.8841 7.99081L23.3744 9.17577H22.4019Z" fill="#6E6C6C"/>
<path d="M29.9598 21H3.04007C1.91334 21 1 20.0906 1 18.9687V3.03137C1 1.9095 1.91344 1 3.04017 1H29.9598C31.0866 1 32 1.9095 32 3.03137V18.9686C32 20.0905 31.0866 21 29.9598 21Z" stroke="#6E6C6C" stroke-width="0.8" stroke-miterlimit="10" stroke-linecap="round" stroke-linejoin="round"/>
</svg>
