<svg width="214" height="311" viewBox="0 0 214 311" fill="none" xmlns="http://www.w3.org/2000/svg">
<rect width="214" height="311" fill="#E5E5E5"/>
<path d="M144.487 207.987V229.2H102L102 146.5C102 123.427 115.27 122.851 115.27 122.851V79H131.228V122.851C131.228 122.851 144.497 123.427 144.497 146.5V152.129C144.487 167.198 144.487 190.857 144.487 207.987Z" stroke="#C3BEBE" stroke-width="5" stroke-miterlimit="10" stroke-linecap="round" stroke-linejoin="round"/>
<path d="M102 152.13H144.487" stroke="#C3BEBE" stroke-width="5" stroke-miterlimit="10" stroke-linecap="round" stroke-linejoin="round"/>
<path d="M102 207.987H144.487" stroke="#C3BEBE" stroke-width="5" stroke-miterlimit="10" stroke-linecap="round" stroke-linejoin="round"/>
<path d="M115.26 110.926H131.228" stroke="#C3BEBE" stroke-width="5" stroke-miterlimit="10" stroke-linecap="round" stroke-linejoin="round"/>
<path d="M76.7116 176C78.476 176 90.3847 176 90.3847 176V211.855C90.3847 211.855 82.4456 211.855 77.3732 209.238C73.3505 207.162 70.7571 204.527 69.2134 200.078C67.6697 195.629 74.9472 176 76.7116 176Z" fill="#C3BEBE"/>
<path d="M104.058 176C102.294 176 90.385 176 90.385 176V211.855C90.385 211.855 98.3241 211.855 103.396 209.238C107.419 207.162 110.013 204.527 111.556 200.078C113.1 195.629 105.822 176 104.058 176Z" fill="#C3BEBE"/>
<path d="M79.7698 179.982C81.0899 179.982 90 179.982 90 179.982V207.855C90 207.855 84.06 207.855 80.2648 205.821C77.2551 204.207 75.3147 202.159 74.1597 198.7C73.0047 195.241 78.4497 179.982 79.7698 179.982Z" fill="#E5E5E5"/>
<path d="M100.87 179.982C99.467 179.982 90 179.982 90 179.982V207.855C90 207.855 96.3113 207.855 100.344 205.821C103.542 204.207 105.603 202.159 106.83 198.7C108.058 195.241 102.272 179.982 100.87 179.982Z" fill="#E5E5E5"/>
<path d="M92 208.851H89V230.751H92V208.851Z" fill="#C3BEBE"/>
<path d="M77.5937 231.745C77.5937 231.745 77.5937 231.187 77.5937 230.829C77.5937 230.829 77.5936 230.96 77.5937 229.913C77.5938 228.866 90.3847 228.081 90.3847 228.081L90.3847 231.745L77.5937 231.745Z" fill="#C3BEBE"/>
<ellipse rx="0.681637" ry="1.05366" transform="matrix(0.894559 0.446949 -0.334353 0.942448 77.811 230.702)" fill="#C3BEBE"/>
<path d="M103.176 231.745C103.176 231.745 103.176 231.187 103.176 230.829C103.176 230.829 103.176 230.96 103.176 229.913C103.176 228.866 90.385 228.081 90.385 228.081L90.385 231.745L103.176 231.745Z" fill="#C3BEBE"/>
<ellipse rx="0.681637" ry="1.05366" transform="matrix(-0.894559 0.446949 0.334353 0.942448 102.959 230.702)" fill="#C3BEBE"/>
</svg>
