<svg width="161" height="56" viewBox="0 0 161 56" fill="none" xmlns="http://www.w3.org/2000/svg">
<path d="M24.0127 45.4871L2.79953 45.4871L2.79953 2.99999L85.4997 3C108.573 3 109.149 16.2696 109.149 16.2696L153 16.2696L153 32.2275L109.149 32.2275C109.149 32.2275 108.573 45.4972 85.4997 45.4972L79.8705 45.4972C64.8019 45.4871 41.143 45.4871 24.0127 45.4871Z" stroke="#C3BEBE" stroke-width="5" stroke-miterlimit="10" stroke-linecap="round" stroke-linejoin="round"/>
<path d="M79.8704 3L79.8704 45.4871" stroke="#C3BEBE" stroke-width="5" stroke-miterlimit="10" stroke-linecap="round" stroke-linejoin="round"/>
<path d="M24.0127 3L24.0127 45.4871" stroke="#C3BEBE" stroke-width="5" stroke-miterlimit="10" stroke-linecap="round" stroke-linejoin="round"/>
<path d="M121.074 16.2595L121.074 32.2275" stroke="#C3BEBE" stroke-width="5" stroke-miterlimit="10" stroke-linecap="round" stroke-linejoin="round"/>
<ellipse cx="147" cy="52.1389" rx="4" ry="1" fill="#AB044A"/>
<ellipse cx="151" cy="49.1389" rx="4" ry="1" fill="#AB044A"/>
<ellipse cx="157" cy="54.1389" rx="4" ry="1" fill="#AB044A"/>
<circle cx="152.5" cy="34.6389" r="1.5" fill="#AB044A"/>
</svg>
