<svg width="32" height="27" viewBox="0 0 32 27" fill="none" xmlns="http://www.w3.org/2000/svg">
<path d="M14.708 13.347C14.252 12.364 14 11.242 14 10C14 8.758 14.252 7.511 14.708 6.341C15.163 5.17 15.822 4.075 16.637 3.136C17.451 2.198 18.421 1.413 19.497 0.865C20.574 0.314 21.758 0 23 0C24.242 0 25.426 0.252 26.503 0.707C27.58 1.163 28.549 1.822 29.363 2.636C30.176 3.45 30.837 4.42 31.292 5.497C31.749 6.573 32 7.758 32 9C32 10.242 31.748 11.427 31.292 12.503C30.837 13.58 30.178 14.55 29.363 15.364C28.55 16.178 17.077 26.544 16 27C14.923 26.544 3.45 16.178 2.636 15.364C1.822 14.55 1.163 13.58 0.707 12.503C0.252 11.427 0 10.242 0 9C0 7.758 0.252 6.573 0.707 5.497C1.163 4.42 1.821 3.45 2.636 2.636C3.45 1.822 4.42 1.163 5.497 0.707C6.573 0.252 7.757 0 9 0C10.243 0 11.427 0.314 12.503 0.863C13.58 1.413 14.549 2.197 15.364 3.135C16.178 4.074 16.837 5.169 17.293 6.34C17.748 7.511 18 8.758 18 10C18 11.242 17.748 12.364 17.293 13.347C16.837 14.33 16.18 15.175 15.364 15.865" fill="#E24B75"/>
</svg>
