<svg width="36" height="40" viewBox="0 0 36 40" fill="none" xmlns="http://www.w3.org/2000/svg">
<path d="M6.62975 0C8.14662 1.4873e-05 18.3847 0 18.3847 0V30.9649C18.3847 30.9649 11.5594 30.9649 7.19854 28.7047C3.7402 26.9122 1.51062 24.6363 0.183474 20.7939C-1.14367 16.9516 5.11288 -1.4873e-05 6.62975 0Z" fill="#EDEDED"/>
<rect x="15.7305" y="26.6705" width="2.65435" height="13.1092" fill="#EDEDED"/>
<path d="M7.38811 39.7797C7.38811 39.7797 7.38811 39.2976 7.38811 38.9886C7.38811 38.9886 7.38804 39.1016 7.38811 38.1976C7.38819 37.2935 18.3847 36.6154 18.3847 36.6154L18.3847 39.7797L7.38811 39.7797Z" fill="#EDEDED"/>
<ellipse rx="0.586545" ry="0.909503" transform="matrix(0.893747 0.448572 -0.333009 0.942924 7.57487 38.8793)" fill="#EDEDED"/>
<path d="M29.1399 0C27.623 1.4873e-05 17.3849 0 17.3849 0V30.9649C17.3849 30.9649 24.2103 30.9649 28.5711 28.7047C32.0294 26.9122 34.259 24.6363 35.5862 20.7939C36.9133 16.9516 30.6568 -1.4873e-05 29.1399 0Z" fill="#EDEDED"/>
<rect width="2.65435" height="13.1092" transform="matrix(-1 0 0 1 20.0392 26.6705)" fill="#EDEDED"/>
<path d="M28.3815 39.7797C28.3815 39.7797 28.3815 39.2976 28.3815 38.9886C28.3815 38.9886 28.3816 39.1016 28.3815 38.1976C28.3815 37.2935 17.385 36.6154 17.385 36.6154L17.385 39.7797L28.3815 39.7797Z" fill="#EDEDED"/>
<ellipse rx="0.586545" ry="0.909503" transform="matrix(-0.893747 0.448572 0.333009 0.942924 28.1947 38.8793)" fill="#EDEDED"/>
<path d="M6.48544 4C7.71745 4.00001 18.0065 4 18.0065 4V29C18.0065 29 12.4629 29 8.92105 27.1752C6.11217 25.728 4.30128 23.8905 3.22337 20.7883C2.14545 17.6861 5.25342 3.99999 6.48544 4Z" fill="#E24B75"/>
<path d="M29.277 4C28.045 4.00001 18.0067 4 18.0067 4V29C18.0067 29 23.5503 29 27.0922 27.1752C29.9011 25.728 31.712 23.8905 32.7899 20.7883C33.8678 17.6861 30.509 3.99999 29.277 4Z" fill="#E24B75"/>
</svg>
