<svg width="30" height="26" viewBox="0 0 30 26" fill="none" xmlns="http://www.w3.org/2000/svg">
<path d="M13.7888 12.5128C13.3613 11.5913 13.125 10.5394 13.125 9.375C13.125 8.21063 13.3613 7.04156 13.7888 5.94469C14.2153 4.84687 14.8331 3.82031 15.5972 2.94C16.3603 2.06063 17.2697 1.32469 18.2784 0.810938C19.2881 0.294375 20.3981 0 21.5625 0C22.7269 0 23.8369 0.23625 24.8466 0.662813C25.8563 1.09031 26.7647 1.70813 27.5278 2.47125C28.29 3.23438 28.9097 4.14375 29.3362 5.15344C29.7647 6.16219 30 7.27313 30 8.4375C30 9.60187 29.7637 10.7128 29.3362 11.7216C28.9097 12.7313 28.2919 13.6406 27.5278 14.4038C26.7656 15.1669 16.0097 24.885 15 25.3125C13.9903 24.885 3.23437 15.1669 2.47125 14.4038C1.70812 13.6406 1.09031 12.7313 0.662813 11.7216C0.23625 10.7128 0 9.60187 0 8.4375C0 7.27313 0.23625 6.16219 0.662813 5.15344C1.09031 4.14375 1.70719 3.23438 2.47125 2.47125C3.23437 1.70813 4.14375 1.09031 5.15344 0.662813C6.16219 0.23625 7.27219 0 8.4375 0C9.60281 0 10.7128 0.294375 11.7216 0.809062C12.7313 1.32469 13.6397 2.05969 14.4038 2.93906C15.1669 3.81938 15.7847 4.84594 16.2122 5.94375C16.6387 7.04156 16.875 8.21063 16.875 9.375C16.875 10.5394 16.6387 11.5913 16.2122 12.5128C15.7847 13.4344 15.1688 14.2266 14.4038 14.8734" fill="#E24B75"/>
</svg>
