<svg width="33" height="22" viewBox="0 0 33 22" fill="none" xmlns="http://www.w3.org/2000/svg">
<path d="M15.9996 7.17625C16.6622 7.69044 17.1977 8.34692 17.5658 9.09599C17.9338 9.84506 18.1247 10.6671 18.1239 11.4999C18.1244 12.3324 17.9335 13.1541 17.5654 13.9029C17.1974 14.6516 16.6619 15.3079 15.9996 15.8219C15.3371 15.3078 14.8016 14.6514 14.4336 13.9025C14.0655 13.1536 13.8746 12.3317 13.8752 11.4991C13.8746 10.6664 14.0655 9.84455 14.4336 9.09563C14.8016 8.34671 15.3371 7.69036 15.9996 7.17625ZM15.2877 6.70537C14.5863 7.29726 14.0233 8.03266 13.6376 8.86073C13.2519 9.68881 13.0527 10.5898 13.0536 11.5015C13.0527 12.4128 13.2518 13.3134 13.6372 14.1412C14.0226 14.9689 14.5852 15.7041 15.286 16.296C14.4394 16.7659 13.4831 17.0085 12.5122 16.9998C11.5413 16.991 10.5897 16.7312 9.75182 16.2461C8.91399 15.761 8.21915 15.0676 7.73639 14.2347C7.25363 13.4018 6.99975 12.4585 7 11.4986C7.00025 10.5387 7.25461 9.59551 7.73779 8.76288C8.22098 7.93025 8.91617 7.23716 9.75425 6.75249C10.5923 6.26783 11.5441 6.00847 12.515 6.0002C13.4859 5.99194 14.4421 6.23505 15.2885 6.70537H15.2877ZM16.7132 16.296C17.414 15.7041 17.9765 14.9689 18.362 14.1412C18.7474 13.3134 18.9465 12.4128 18.9455 11.5015C18.9465 10.5898 18.7473 9.68881 18.3616 8.86073C17.9758 8.03266 17.4129 7.29726 16.7115 6.70537C17.5579 6.23505 18.5141 5.99194 19.485 6.0002C20.4559 6.00847 21.4077 6.26783 22.2457 6.75249C23.0838 7.23716 23.779 7.93025 24.2622 8.76288C24.7454 9.59551 24.9998 10.5387 25 11.4986C25.0002 12.4585 24.7464 13.4018 24.2636 14.2347C23.7808 15.0676 23.086 15.761 22.2482 16.2461C21.4103 16.7312 20.4587 16.991 19.4878 16.9998C18.5169 17.0085 17.5606 16.7659 16.714 16.296H16.7132Z" fill="#6E6C6C"/>
<path d="M29.9598 21H3.04007C1.91334 21 1 20.0906 1 18.9687V3.03137C1 1.9095 1.91344 1 3.04017 1H29.9598C31.0866 1 32 1.9095 32 3.03137V18.9686C32 20.0905 31.0866 21 29.9598 21Z" stroke="#6E6C6C" stroke-width="0.8" stroke-miterlimit="10" stroke-linecap="round" stroke-linejoin="round"/>
</svg>
