<svg width="25" height="30" viewBox="0 0 25 30" fill="none" xmlns="http://www.w3.org/2000/svg">
<path d="M22.997 26H0.996974C0.82651 25.9995 0.659007 25.9554 0.510373 25.8719C0.36174 25.7885 0.236909 25.6684 0.147737 25.5231C0.0585645 25.3778 0.0080107 25.2122 0.000876328 25.0419C-0.00625804 24.8715 0.0302641 24.7022 0.106974 24.55C1.34084 22.0631 1.98744 19.3262 1.99697 16.55V13C1.99697 10.3478 3.05054 7.8043 4.92591 5.92893C6.80127 4.05357 9.34481 3 11.997 3C14.6491 3 17.1927 4.05357 19.068 5.92893C20.9434 7.8043 21.997 10.3478 21.997 13V16.53C22.0065 19.3062 22.6531 22.0431 23.887 24.53C23.9684 24.6829 24.0087 24.8544 24.0039 25.0276C23.9992 25.2008 23.9495 25.3697 23.8598 25.5179C23.77 25.6661 23.6433 25.7885 23.4921 25.873C23.3408 25.9575 23.1702 26.0013 22.997 26ZM2.54697 24H21.447C20.4934 21.6248 20.0012 19.0895 19.997 16.53V13C19.997 10.8783 19.1541 8.84344 17.6538 7.34315C16.1535 5.84285 14.1187 5 11.997 5C9.87524 5 7.84041 5.84285 6.34012 7.34315C4.83983 8.84344 3.99697 10.8783 3.99697 13V16.53C3.9927 19.0895 3.50058 21.6248 2.54697 24Z" fill="#383838"/>
<path d="M11.9971 30C10.671 30 9.39922 29.4732 8.46154 28.5355C7.52385 27.5979 6.99707 26.3261 6.99707 25C6.99707 24.7348 7.10243 24.4804 7.28996 24.2929C7.4775 24.1054 7.73185 24 7.99707 24C8.26229 24 8.51664 24.1054 8.70418 24.2929C8.89171 24.4804 8.99707 24.7348 8.99707 25C8.99777 25.7954 9.3143 26.5579 9.87707 27.12C10.4493 27.663 11.2082 27.9657 11.9971 27.9657C12.786 27.9657 13.5448 27.663 14.1171 27.12C14.2103 27.0268 14.321 26.9528 14.4428 26.9023C14.5646 26.8519 14.6952 26.8259 14.8271 26.8259C14.9589 26.8259 15.0895 26.8519 15.2113 26.9023C15.3331 26.9528 15.4438 27.0268 15.5371 27.12C15.6303 27.2132 15.7043 27.3239 15.7547 27.4458C15.8052 27.5676 15.8312 27.6981 15.8312 27.83C15.8312 27.9619 15.8052 28.0924 15.7547 28.2142C15.7043 28.3361 15.6303 28.4468 15.5371 28.54C15.0719 29.004 14.5198 29.3718 13.9124 29.6223C13.305 29.8728 12.6541 30.0012 11.9971 30Z" fill="#383838"/>
<path d="M11.9971 5C11.7319 5 11.4775 4.89464 11.29 4.70711C11.1024 4.51957 10.9971 4.26522 10.9971 4V1C10.9971 0.734784 11.1024 0.48043 11.29 0.292893C11.4775 0.105357 11.7319 0 11.9971 0C12.2623 0 12.5166 0.105357 12.7042 0.292893C12.8917 0.48043 12.9971 0.734784 12.9971 1V4C12.9971 4.26522 12.8917 4.51957 12.7042 4.70711C12.5166 4.89464 12.2623 5 11.9971 5Z" fill="#383838"/>
</svg>
