<svg width="83" height="82" viewBox="0 0 83 82" fill="none" xmlns="http://www.w3.org/2000/svg">
<path d="M31.7909 0.462021C32.3275 0.328496 32.8691 0.654251 33.0026 1.19084L34.2686 6.27819L54.2205 18.279L64.0919 58.6546C64.3193 59.5686 64.1766 60.5179 63.6911 61.3251C63.2055 62.1323 62.4338 62.7032 61.5199 62.9307L33.4331 69.9198C32.4903 70.1544 31.5409 69.9847 30.767 69.5193C29.9898 69.0518 29.3914 68.287 29.1536 67.334L19.8175 27.5605L32.3281 6.76107L31.0621 1.67372C30.9286 1.13713 31.2543 0.595547 31.7909 0.462021ZM21.9499 27.8955L31.0975 66.8649C31.301 67.6828 32.1323 68.1828 32.9502 67.9792L61.037 60.9902C61.8549 60.7866 62.3549 59.9554 62.1503 59.1334L52.4749 19.563L34.9516 9.02292L36.602 15.6556C37.5499 15.6142 38.519 15.8365 39.3905 16.3607C41.7531 17.7818 42.519 20.86 41.098 23.2225C39.6769 25.5851 36.5987 26.3511 34.2362 24.93C31.8736 23.509 31.1076 20.4308 32.5287 18.0682C33.0529 17.1967 33.8048 16.5462 34.6615 16.1384L33.011 9.5058L21.9499 27.8955ZM34.2425 19.0991C33.39 20.5164 33.8497 22.3636 35.267 23.2162C36.6844 24.0687 38.5316 23.609 39.3841 22.1917C40.2367 20.7743 39.777 18.9271 38.3596 18.0746C37.9637 17.8364 37.5348 17.7115 37.1033 17.6702L37.7836 20.4039C37.9171 20.9405 37.5914 21.4821 37.0548 21.6156C36.7872 21.6822 36.5173 21.6342 36.2979 21.5023C36.0785 21.3703 35.9097 21.1544 35.8431 20.8868L35.1628 18.1531C34.8002 18.3912 34.4807 18.7032 34.2425 19.0991Z" fill="black"/>
<path d="M38.6317 44.8947L41.6206 44.1509C43.6252 43.6521 44.9851 42.9185 45.7002 41.9503C46.4153 40.982 46.5906 39.7657 46.2262 38.3012C45.8558 36.8127 45.1038 35.8654 43.9702 35.4591C42.8366 35.0529 41.2915 35.0932 39.3349 35.5801L36.49 36.288L38.6317 44.8947ZM39.5188 48.4598L42.1354 58.975L37.8321 60.0459L31.2816 33.7217L38.7179 31.8712C42.115 31.0259 44.7881 31.0363 46.7372 31.9025C48.6863 32.7687 49.9805 34.4862 50.6197 37.055C51.4352 40.332 50.3116 43.0909 47.249 45.3316L57.5842 55.1308L52.6867 56.3495L43.7681 47.4024L39.5188 48.4598Z" fill="black"/>
</svg>
