<svg width="92" height="92" viewBox="0 0 92 92" fill="none" xmlns="http://www.w3.org/2000/svg">
<path d="M91 45.9C91 45.8 91.1 45.6 91.1 45.5C91.1 41.2 86.6 39 82.7 37.1C79.9 35.7 76.9 34.2 76.1 32.4C75.3 30.5 76.4 27.4 77.5 24.5C79 20.4 80.5 16.2 77.7 13.4C74.9 10.6 70.9 11.6 66.9 12.5C64.1 13.1 61.2 13.8 59.3 13C57.4 12.2 55.8 9.7 54.3 7.3C52.1 3.9 49.7 -1.52689e-06 45.5 -1.39786e-06C41.3 -1.26883e-06 38.9 3.9 36.8 7.4C35.3 9.9 33.8 12.4 31.9 13.2C30 14 27 13.3 24.2 12.6C20.2 11.6 16.1 10.6 13.4 13.3C10.6 16.1 12 20.3 13.3 24.4C14.3 27.4 15.2 30.4 14.4 32.4C13.6 34.3 10.8 35.7 8.1 37.1C4.3 39.1 1.26883e-06 41.3 1.39786e-06 45.5C1.40093e-06 45.6 1.31022e-06 45.8 0.100001 45.9C0.100001 46 1.41937e-06 46.2 1.42244e-06 46.3C1.55147e-06 50.5 4.3 52.8 8.1 54.7C10.8 56.1 13.6 57.5 14.4 59.4C15.2 61.3 14.2 64.4 13.3 67.4C12 71.5 10.6 75.7 13.4 78.5C16.2 81.3 20.3 80.2 24.2 79.2C27 78.5 30 77.8 31.9 78.6C33.8 79.4 35.3 81.9 36.8 84.4C38.9 87.9 41.3 91.8 45.5 91.8C49.7 91.8 52.2 87.9 54.3 84.5C55.8 82.1 57.4 79.6 59.3 78.8C61.3 78 64.1 78.6 66.9 79.3C70.8 80.2 74.9 81.2 77.7 78.4C80.5 75.6 79 71.4 77.5 67.3C76.4 64.3 75.3 61.3 76.1 59.4C76.9 57.5 79.8 56.1 82.7 54.7C86.6 52.7 91.1 50.5 91.1 46.3C91.1 46.1 91 46 91 45.9ZM81.3 52C78 53.7 74.5 55.4 73.3 58.3C72 61.3 73.4 64.9 74.6 68.4C75.8 71.7 77 74.9 75.5 76.3C73.9 77.9 70.8 77.2 67.5 76.4C64.2 75.6 60.9 74.9 58 76.1C55.2 77.3 53.4 80.1 51.7 82.9C49.8 85.9 48 88.8 45.4 88.8C42.9 88.8 41.1 85.9 39.2 82.8C37.5 79.9 35.7 77 32.9 75.8C30 74.6 26.6 75.4 23.3 76.3C20 77.1 16.9 77.9 15.3 76.4C13.8 74.9 14.8 71.7 15.9 68.4C17 64.9 18.2 61.3 16.9 58.4C15.7 55.5 12.4 53.8 9.2 52.2C5.9 50.5 2.8 48.9 2.8 46.4C2.8 46.3 2.8 46.1 2.7 46C2.7 45.9 2.8 45.7 2.8 45.6C2.8 43.2 5.9 41.6 9.2 39.8C12.4 38.2 15.7 36.5 16.9 33.6C18.1 30.6 17 27 15.9 23.6C14.8 20.2 13.8 17 15.3 15.6C16.9 14 20 14.8 23.3 15.7C26.6 16.5 30 17.4 32.9 16.2C35.7 15 37.5 12.1 39.2 9.2C41.1 6.1 42.8 3.2 45.4 3.2C48 3.2 49.8 6.1 51.7 9.1C53.5 11.9 55.3 14.7 58 15.9C60.9 17.1 64.2 16.3 67.5 15.6C70.8 14.8 73.9 14.1 75.5 15.7C77 17.1 75.8 20.3 74.6 23.6C73.3 27.1 72 30.7 73.3 33.7C74.5 36.6 78 38.3 81.3 40C84.8 41.7 88 43.4 88 45.8C88 45.9 88 46.1 88.1 46.2C88.1 46.3 88 46.5 88 46.6C88.1 48.6 84.8 50.3 81.3 52Z" fill="black"/>
<path d="M40.6442 43.9382L44.6969 43.9498C47.415 43.9575 49.3858 43.4586 50.6094 42.453C51.833 41.4474 52.4476 39.9517 52.4533 37.966C52.459 35.9478 51.804 34.4974 50.4882 33.6147C49.1723 32.732 47.1879 32.2869 44.5349 32.2793L40.6775 32.2683L40.6442 43.9382ZM40.6304 48.7722L40.5896 63.0299L34.7547 63.0132L34.8567 27.32L44.9396 27.3488C49.5457 27.362 52.9531 28.2344 55.1617 29.9659C57.3703 31.6975 58.4696 34.3048 58.4597 37.7879C58.447 42.2312 56.1268 45.3903 51.499 47.2651L61.5368 63.0898L54.8962 63.0708L46.3921 48.7886L40.6304 48.7722Z" fill="black"/>
</svg>
