<svg width="76" height="153" viewBox="0 0 76 153" fill="none" xmlns="http://www.w3.org/2000/svg">
<path d="M75.4871 128.987V150.2H33L33 67.5003C33 44.4275 46.2696 43.8514 46.2696 43.8514L46.2696 0L62.2275 0L62.2275 43.8514C62.2275 43.8514 75.4972 44.4275 75.4972 67.5003V73.1295C75.4871 88.1981 75.4871 111.857 75.4871 128.987Z" fill="#DAD4D4"/>
<path d="M7.71158 97C9.47597 97 21.3847 97 21.3847 97V132.855C21.3847 132.855 13.4456 132.855 8.37318 130.238C4.35052 128.162 1.75712 125.527 0.213413 121.078C-1.33029 116.629 5.94718 97 7.71158 97Z" fill="#DAD4D4"/>
<path d="M35.058 97C33.2936 97 21.3848 97 21.3848 97V132.855C21.3848 132.855 29.3239 132.855 34.3964 130.238C38.419 128.162 41.0124 125.527 42.5561 121.078C44.0998 116.629 36.8223 97 35.058 97Z" fill="#DAD4D4"/>
<path d="M23 129.851H20V151.751H23V129.851Z" fill="#DAD4D4"/>
<path d="M8.59357 152.745C8.59357 152.745 8.59357 152.187 8.59357 151.829C8.59357 151.829 8.59349 151.96 8.59357 150.913C8.59365 149.867 21.3845 149.081 21.3845 149.081L21.3846 152.745L8.59357 152.745Z" fill="#DAD4D4"/>
<ellipse rx="0.681637" ry="1.05366" transform="matrix(0.894559 0.446949 -0.334353 0.942448 8.81094 151.703)" fill="#DAD4D4"/>
<path d="M34.176 152.745C34.176 152.745 34.176 152.187 34.176 151.829C34.176 151.829 34.176 151.96 34.176 150.913C34.1759 149.867 21.385 149.081 21.385 149.081L21.385 152.745L34.176 152.745Z" fill="#DAD4D4"/>
<ellipse rx="0.681637" ry="1.05366" transform="matrix(-0.894559 0.446949 0.334353 0.942448 33.9586 151.703)" fill="#DAD4D4"/>
</svg>
