<svg width="33" height="22" viewBox="0 0 33 22" fill="none" xmlns="http://www.w3.org/2000/svg">
<path d="M24.5924 14.899L24.4143 13.8841H22.424L22.1074 14.8918L20.5122 14.8954C21.2716 12.8144 22.0326 10.7343 22.7953 8.6549C22.9252 8.30219 23.1555 8.12268 23.4952 8.12448C23.7548 8.12719 24.1784 8.12719 24.7666 8.12539L26 14.8963L24.5924 14.899ZM22.8721 12.4941H24.1546L23.6757 9.95026L22.8721 12.4941ZM12.5892 8.12358L14.1931 8.12539L11.7136 14.8999L10.0899 14.8981C9.68157 13.1087 9.27835 11.3178 8.88021 9.52539C8.80104 9.16817 8.64429 8.9183 8.34267 8.80013C8.07429 8.69459 7.627 8.53222 7 8.31121V8.12629H9.56263C10.006 8.12629 10.2648 8.37075 10.348 8.87229C10.4319 9.37474 10.6425 10.6539 10.9813 12.7097L12.5892 8.12358ZM16.3971 8.12539L15.1288 14.8981L13.6025 14.8963L14.8692 8.12358L16.3971 8.12539ZM19.4925 8C19.9493 8 20.5248 8.16237 20.8558 8.31121L20.5882 9.71572C20.2889 9.57861 19.7965 9.39369 19.3825 9.4C18.7808 9.41173 18.4087 9.69948 18.4087 9.97552C18.4087 10.4247 19.0547 10.6512 19.7197 11.1419C20.4789 11.7012 20.5787 12.2036 20.5692 12.7494C20.5589 13.8823 19.7197 15 17.9495 15C17.142 14.9865 16.8507 14.9089 16.192 14.6428L16.4707 13.1769C17.1413 13.4972 17.4255 13.5991 17.9986 13.5991C18.5235 13.5991 18.974 13.3573 18.9779 12.9361C18.9811 12.6366 18.8196 12.4878 18.2306 12.1179C17.6416 11.7472 16.8151 11.2339 16.8262 10.2037C16.8396 8.88492 17.9361 8 19.4933 8H19.4925Z" fill="#6E6C6C"/>
<path d="M29.9598 21H3.04007C1.91334 21 1 20.0906 1 18.9687V3.03137C1 1.9095 1.91344 1 3.04017 1H29.9598C31.0866 1 32 1.9095 32 3.03137V18.9686C32 20.0905 31.0866 21 29.9598 21Z" stroke="#6E6C6C" stroke-width="0.8" stroke-miterlimit="10" stroke-linecap="round" stroke-linejoin="round"/>
</svg>
